<?xml version="1.0" standalone="no"?>
<!DOCTYPE svg PUBLIC "-//W3C//DTD SVG 20010904//EN"
 "http://www.w3.org/TR/2001/REC-SVG-20010904/DTD/svg10.dtd">
<svg version="1.0" xmlns="http://www.w3.org/2000/svg"
 width="139.000000pt" height="139.000000pt" viewBox="0 0 139.000000 139.000000"
 preserveAspectRatio="xMidYMid meet">
<metadata>
Created by potrace 1.14, written by Peter Selinger 2001-2017
</metadata>
<g transform="translate(0.000000,139.000000) scale(0.100000,-0.100000)"
fill="#000000" stroke="none">
<path d="M673 1247 c-18 -12 -32 -25 -33 -28 -1 -15 63 -90 70 -83 4 5 18 33
31 62 19 45 20 55 8 63 -21 13 -40 9 -76 -14z"/>
<path d="M750 1170 l-33 -68 79 -115 c59 -87 82 -113 90 -104 6 7 37 60 68
118 l56 107 -52 33 c-85 52 -142 85 -159 91 -12 5 -24 -10 -49 -62z"/>
<path d="M500 1146 c-58 -35 -149 -89 -202 -120 -107 -63 -115 -75 -79 -131
10 -16 69 -90 129 -163 95 -114 112 -130 120 -115 27 51 222 476 222 484 0 12
-70 109 -78 108 -4 0 -54 -28 -112 -63z"/>
<path d="M960 970 c-39 -72 -71 -120 -80 -120 -9 0 -49 49 -90 110 -40 61 -77
110 -80 110 -8 0 -230 -470 -230 -487 0 -6 32 -50 71 -97 l71 -87 17 28 c10
15 64 115 122 221 80 148 108 192 122 190 10 -2 70 -79 141 -183 67 -99 127
-180 132 -179 5 1 28 34 51 75 l42 74 0 172 1 173 -102 60 c-57 33 -108 60
-113 60 -6 0 -40 -54 -75 -120z"/>
<path d="M201 611 l-1 -260 56 -31 c30 -18 57 -31 59 -29 4 4 100 207 121 256
l14 32 -115 140 c-63 77 -119 142 -124 145 -5 4 -9 -102 -10 -253z"/>
<path d="M757 600 l-119 -220 75 -92 c42 -51 90 -110 109 -131 l33 -37 85 50
86 51 57 104 c31 57 57 109 57 115 0 12 -251 380 -259 380 -3 0 -59 -99 -124
-220z"/>
<path d="M1206 510 l-37 -70 32 -45 c18 -25 36 -45 41 -45 4 0 8 52 8 115 0
63 -1 115 -3 115 -1 0 -20 -31 -41 -70z"/>
<path d="M398 421 c-47 -101 -63 -143 -55 -149 23 -18 159 -94 162 -90 7 8
105 189 105 194 0 4 -26 38 -57 76 -32 39 -65 79 -73 89 -15 19 -20 11 -82
-120z"/>
<path d="M1112 338 c-23 -44 -40 -83 -38 -85 6 -6 112 55 126 73 10 11 7 22
-14 54 -14 22 -27 40 -29 40 -1 0 -21 -37 -45 -82z"/>
<path d="M578 271 c-27 -49 -48 -93 -48 -99 0 -5 45 -35 100 -67 l101 -57 44
26 c24 15 46 30 49 34 4 7 -189 252 -197 252 -1 0 -23 -40 -49 -89z"/>
</g>
</svg>
